solid ASCII
  facet normal 0.000000e+00 0.000000e+00 -1.000000e+00
    outer loop
      vertex   5.251940e+01 5.970184e+01 6.320000e+01
      vertex   5.751940e+01 5.970184e+01 6.320000e+01
      vertex   5.251940e+01 5.683774e+01 6.320000e+01
    endloop
  endfacet
  facet normal 0.000000e+00 0.000000e+00 -1.000000e+00
    outer loop
      vertex   5.251940e+01 5.683774e+01 6.320000e+01
      vertex   5.751940e+01 5.970184e+01 6.320000e+01
      vertex   5.751940e+01 5.683774e+01 6.320000e+01
    endloop
  endfacet
  facet normal 1.000000e+00 0.000000e+00 -0.000000e+00
    outer loop
      vertex   5.251940e+01 5.970184e+01 5.520000e+01
      vertex   5.251940e+01 5.970184e+01 6.320000e+01
      vertex   5.251940e+01 5.683774e+01 5.520000e+01
    endloop
  endfacet
  facet normal 1.000000e+00 0.000000e+00 0.000000e+00
    outer loop
      vertex   5.251940e+01 5.683774e+01 5.520000e+01
      vertex   5.251940e+01 5.970184e+01 6.320000e+01
      vertex   5.251940e+01 5.683774e+01 6.320000e+01
    endloop
  endfacet
  facet normal -1.000000e+00 -0.000000e+00 -0.000000e+00
    outer loop
      vertex   5.751940e+01 5.970184e+01 6.320000e+01
      vertex   5.751940e+01 5.970184e+01 5.520000e+01
      vertex   5.751940e+01 5.683774e+01 6.320000e+01
    endloop
  endfacet
  facet normal -1.000000e+00 0.000000e+00 0.000000e+00
    outer loop
      vertex   5.751940e+01 5.683774e+01 6.320000e+01
      vertex   5.751940e+01 5.970184e+01 5.520000e+01
      vertex   5.751940e+01 5.683774e+01 5.520000e+01
    endloop
  endfacet
  facet normal -3.537348e-15 1.000000e+00 0.000000e+00
    outer loop
      vertex   5.751940e+01 5.970184e+01 5.520000e+01
      vertex   5.751940e+01 5.970184e+01 6.320000e+01
      vertex   5.952808e+01 5.970184e+01 5.520000e+01
    endloop
  endfacet
  facet normal -3.537348e-15 1.000000e+00 0.000000e+00
    outer loop
      vertex   5.952808e+01 5.970184e+01 5.520000e+01
      vertex   5.751940e+01 5.970184e+01 6.320000e+01
      vertex   5.952808e+01 5.970184e+01 1.340000e+02
    endloop
  endfacet
  facet normal 0.000000e+00 1.000000e+00 -1.003591e-16
    outer loop
      vertex   5.952808e+01 5.970184e+01 1.340000e+02
      vertex   5.751940e+01 5.970184e+01 6.320000e+01
      vertex   5.251940e+01 5.970184e+01 6.320000e+01
    endloop
  endfacet
  facet normal -1.193626e-16 1.000000e+00 -8.854311e-17
    outer loop
      vertex   5.952808e+01 5.970184e+01 1.340000e+02
      vertex   5.251940e+01 5.970184e+01 6.320000e+01
      vertex   -5.952808e+01 5.970184e+01 1.340000e+02
    endloop
  endfacet
  facet normal -6.341443e-17 1.000000e+00 0.000000e+00
    outer loop
      vertex   -5.952808e+01 5.970184e+01 1.340000e+02
      vertex   5.251940e+01 5.970184e+01 6.320000e+01
      vertex   -5.952808e+01 5.970184e+01 5.520000e+01
    endloop
  endfacet
  facet normal -6.341443e-17 1.000000e+00 0.000000e+00
    outer loop
      vertex   -5.952808e+01 5.970184e+01 5.520000e+01
      vertex   5.251940e+01 5.970184e+01 6.320000e+01
      vertex   5.251940e+01 5.970184e+01 5.520000e+01
    endloop
  endfacet
  facet normal 0.000000e+00 -0.000000e+00 -1.000000e+00
    outer loop
      vertex   -5.952808e+01 5.970184e+01 5.520000e+01
      vertex   5.251940e+01 5.970184e+01 5.520000e+01
      vertex   -6.340515e+01 5.819262e+01 5.520000e+01
    endloop
  endfacet
  facet normal 0.000000e+00 0.000000e+00 -1.000000e+00
    outer loop
      vertex   -6.340515e+01 5.819262e+01 5.520000e+01
      vertex   5.251940e+01 5.970184e+01 5.520000e+01
      vertex   5.251940e+01 5.683774e+01 5.520000e+01
    endloop
  endfacet
  facet normal 0.000000e+00 0.000000e+00 -1.000000e+00
    outer loop
      vertex   -6.340515e+01 5.819262e+01 5.520000e+01
      vertex   5.251940e+01 5.683774e+01 5.520000e+01
      vertex   -6.148906e+01 5.683774e+01 5.520000e+01
    endloop
  endfacet
  facet normal 0.000000e+00 -1.000000e+00 0.000000e+00
    outer loop
      vertex   3.700000e+01 7.500000e+01 1.340000e+02
      vertex   3.825000e+01 7.500000e+01 1.340000e+02
      vertex   3.700000e+01 7.500000e+01 1.400000e+02
    endloop
  endfacet
  facet normal 0.000000e+00 -1.000000e+00 0.000000e+00
    outer loop
      vertex   3.700000e+01 7.500000e+01 1.400000e+02
      vertex   3.825000e+01 7.500000e+01 1.340000e+02
      vertex   3.825000e+01 7.500000e+01 1.400000e+02
    endloop
  endfacet
  facet normal 9.961947e-01 -8.715574e-02 0.000000e+00
    outer loop
      vertex   3.500000e+01 7.300000e+01 1.400000e+02
      vertex   3.500000e+01 7.300000e+01 1.340000e+02
      vertex   3.503039e+01 7.334730e+01 1.400000e+02
    endloop
  endfacet
  facet normal 9.961947e-01 -8.715574e-02 0.000000e+00
    outer loop
      vertex   3.503039e+01 7.334730e+01 1.400000e+02
      vertex   3.500000e+01 7.300000e+01 1.340000e+02
      vertex   3.503039e+01 7.334730e+01 1.340000e+02
    endloop
  endfacet
  facet normal 9.659258e-01 -2.588190e-01 0.000000e+00
    outer loop
      vertex   3.503039e+01 7.334730e+01 1.400000e+02
      vertex   3.503039e+01 7.334730e+01 1.340000e+02
      vertex   3.512062e+01 7.368404e+01 1.400000e+02
    endloop
  endfacet
  facet normal 9.659258e-01 -2.588190e-01 0.000000e+00
    outer loop
      vertex   3.512062e+01 7.368404e+01 1.400000e+02
      vertex   3.503039e+01 7.334730e+01 1.340000e+02
      vertex   3.512062e+01 7.368404e+01 1.340000e+02
    endloop
  endfacet
  facet normal 9.063078e-01 -4.226183e-01 0.000000e+00
    outer loop
      vertex   3.512062e+01 7.368404e+01 1.400000e+02
      vertex   3.512062e+01 7.368404e+01 1.340000e+02
      vertex   3.526795e+01 7.400000e+01 1.400000e+02
    endloop
  endfacet
  facet normal 9.063078e-01 -4.226183e-01 0.000000e+00
    outer loop
      vertex   3.526795e+01 7.400000e+01 1.400000e+02
      vertex   3.512062e+01 7.368404e+01 1.340000e+02
      vertex   3.526795e+01 7.400000e+01 1.340000e+02
    endloop
  endfacet
  facet normal 8.191520e-01 -5.735764e-01 0.000000e+00
    outer loop
      vertex   3.526795e+01 7.400000e+01 1.400000e+02
      vertex   3.526795e+01 7.400000e+01 1.340000e+02
      vertex   3.546791e+01 7.428558e+01 1.400000e+02
    endloop
  endfacet
  facet normal 8.191520e-01 -5.735764e-01 0.000000e+00
    outer loop
      vertex   3.546791e+01 7.428558e+01 1.400000e+02
      vertex   3.526795e+01 7.400000e+01 1.340000e+02
      vertex   3.546791e+01 7.428558e+01 1.340000e+02
    endloop
  endfacet
  facet normal 7.071068e-01 -7.071068e-01 0.000000e+00
    outer loop
      vertex   3.546791e+01 7.428558e+01 1.400000e+02
      vertex   3.546791e+01 7.428558e+01 1.340000e+02
      vertex   3.571443e+01 7.453209e+01 1.400000e+02
    endloop
  endfacet
  facet normal 7.071068e-01 -7.071068e-01 0.000000e+00
    outer loop
      vertex   3.571443e+01 7.453209e+01 1.400000e+02
      vertex   3.546791e+01 7.428558e+01 1.340000e+02
      vertex   3.571443e+01 7.453209e+01 1.340000e+02
    endloop
  endfacet
  facet normal 5.735764e-01 -8.191520e-01 0.000000e+00
    outer loop
      vertex   3.571443e+01 7.453209e+01 1.400000e+02
      vertex   3.571443e+01 7.453209e+01 1.340000e+02
      vertex   3.600000e+01 7.473205e+01 1.400000e+02
    endloop
  endfacet
  facet normal 5.735764e-01 -8.191520e-01 0.000000e+00
    outer loop
      vertex   3.600000e+01 7.473205e+01 1.400000e+02
      vertex   3.571443e+01 7.453209e+01 1.340000e+02
      vertex   3.600000e+01 7.473205e+01 1.340000e+02
    endloop
  endfacet
  facet normal 4.226183e-01 -9.063078e-01 0.000000e+00
    outer loop
      vertex   3.600000e+01 7.473205e+01 1.400000e+02
      vertex   3.600000e+01 7.473205e+01 1.340000e+02
      vertex   3.631596e+01 7.487939e+01 1.400000e+02
    endloop
  endfacet
  facet normal 4.226183e-01 -9.063078e-01 0.000000e+00
    outer loop
      vertex   3.631596e+01 7.487939e+01 1.400000e+02
      vertex   3.600000e+01 7.473205e+01 1.340000e+02
      vertex   3.631596e+01 7.487939e+01 1.340000e+02
    endloop
  endfacet
  facet normal 2.588190e-01 -9.659258e-01 0.000000e+00
    outer loop
      vertex   3.631596e+01 7.487939e+01 1.400000e+02
      vertex   3.631596e+01 7.487939e+01 1.340000e+02
      vertex   3.665270e+01 7.496962e+01 1.400000e+02
    endloop
  endfacet
  facet normal 2.588190e-01 -9.659258e-01 0.000000e+00
    outer loop
      vertex   3.665270e+01 7.496962e+01 1.400000e+02
      vertex   3.631596e+01 7.487939e+01 1.340000e+02
      vertex   3.665270e+01 7.496962e+01 1.340000e+02
    endloop
  endfacet
  facet normal 8.715574e-02 -9.961947e-01 0.000000e+00
    outer loop
      vertex   3.665270e+01 7.496962e+01 1.400000e+02
      vertex   3.665270e+01 7.496962e+01 1.340000e+02
      vertex   3.700000e+01 7.500000e+01 1.400000e+02
    endloop
  endfacet
  facet normal 8.715574e-02 -9.961947e-01 0.000000e+00
    outer loop
      vertex   3.700000e+01 7.500000e+01 1.400000e+02
      vertex   3.665270e+01 7.496962e+01 1.340000e+02
      vertex   3.700000e+01 7.500000e+01 1.340000e+02
    endloop
  endfacet
  facet normal 1.000000e+00 -2.842171e-14 0.000000e+00
    outer loop
      vertex   3.500000e+01 7.300000e+01 1.340000e+02
      vertex   3.500000e+01 7.300000e+01 1.400000e+02
      vertex   3.500000e+01 7.275000e+01 1.340000e+02
    endloop
  endfacet
  facet normal 1.000000e+00 -2.842171e-14 0.000000e+00
    outer loop
      vertex   3.500000e+01 7.275000e+01 1.340000e+02
      vertex   3.500000e+01 7.300000e+01 1.400000e+02
      vertex   3.500000e+01 7.275000e+01 1.400000e+02
    endloop
  endfacet
  facet normal 8.715574e-02 9.961947e-01 0.000000e+00
    outer loop
      vertex   3.700000e+01 7.075000e+01 1.400000e+02
      vertex   3.700000e+01 7.075000e+01 1.340000e+02
      vertex   3.665270e+01 7.078039e+01 1.400000e+02
    endloop
  endfacet
  facet normal 8.715574e-02 9.961947e-01 0.000000e+00
    outer loop
      vertex   3.665270e+01 7.078039e+01 1.400000e+02
      vertex   3.700000e+01 7.075000e+01 1.340000e+02
      vertex   3.665270e+01 7.078039e+01 1.340000e+02
    endloop
  endfacet
  facet normal 2.588190e-01 9.659258e-01 0.000000e+00
    outer loop
      vertex   3.665270e+01 7.078039e+01 1.400000e+02
      vertex   3.665270e+01 7.078039e+01 1.340000e+02
      vertex   3.631596e+01 7.087062e+01 1.400000e+02
    endloop
  endfacet
  facet normal 2.588190e-01 9.659258e-01 0.000000e+00
    outer loop
      vertex   3.631596e+01 7.087062e+01 1.400000e+02
      vertex   3.665270e+01 7.078039e+01 1.340000e+02
      vertex   3.631596e+01 7.087062e+01 1.340000e+02
    endloop
  endfacet
  facet normal 4.226183e-01 9.063078e-01 0.000000e+00
    outer loop
      vertex   3.631596e+01 7.087062e+01 1.400000e+02
      vertex   3.631596e+01 7.087062e+01 1.340000e+02
      vertex   3.600000e+01 7.101795e+01 1.400000e+02
    endloop
  endfacet
  facet normal 4.226183e-01 9.063078e-01 0.000000e+00
    outer loop
      vertex   3.600000e+01 7.101795e+01 1.400000e+02
      vertex   3.631596e+01 7.087062e+01 1.340000e+02
      vertex   3.600000e+01 7.101795e+01 1.340000e+02
    endloop
  endfacet
  facet normal 5.735764e-01 8.191520e-01 0.000000e+00
    outer loop
      vertex   3.600000e+01 7.101795e+01 1.400000e+02
      vertex   3.600000e+01 7.101795e+01 1.340000e+02
      vertex   3.571443e+01 7.121791e+01 1.400000e+02
    endloop
  endfacet
  facet normal 5.735764e-01 8.191520e-01 0.000000e+00
    outer loop
      vertex   3.571443e+01 7.121791e+01 1.400000e+02
      vertex   3.600000e+01 7.101795e+01 1.340000e+02
      vertex   3.571443e+01 7.121791e+01 1.340000e+02
    endloop
  endfacet
  facet normal 7.071068e-01 7.071068e-01 0.000000e+00
    outer loop
      vertex   3.571443e+01 7.121791e+01 1.400000e+02
      vertex   3.571443e+01 7.121791e+01 1.340000e+02
      vertex   3.546791e+01 7.146443e+01 1.400000e+02
    endloop
  endfacet
  facet normal 7.071068e-01 7.071068e-01 0.000000e+00
    outer loop
      vertex   3.546791e+01 7.146443e+01 1.400000e+02
      vertex   3.571443e+01 7.121791e+01 1.340000e+02
      vertex   3.546791e+01 7.146443e+01 1.340000e+02
    endloop
  endfacet
  facet normal 8.191520e-01 5.735764e-01 0.000000e+00
    outer loop
      vertex   3.546791e+01 7.146443e+01 1.400000e+02
      vertex   3.546791e+01 7.146443e+01 1.340000e+02
      vertex   3.526795e+01 7.175000e+01 1.400000e+02
    endloop
  endfacet
  facet normal 8.191520e-01 5.735764e-01 0.000000e+00
    outer loop
      vertex   3.526795e+01 7.175000e+01 1.400000e+02
      vertex   3.546791e+01 7.146443e+01 1.340000e+02
      vertex   3.526795e+01 7.175000e+01 1.340000e+02
    endloop
  endfacet
  facet normal 9.063078e-01 4.226183e-01 0.000000e+00
    outer loop
      vertex   3.526795e+01 7.175000e+01 1.400000e+02
      vertex   3.526795e+01 7.175000e+01 1.340000e+02
      vertex   3.512062e+01 7.206596e+01 1.400000e+02
    endloop
  endfacet
  facet normal 9.063078e-01 4.226183e-01 0.000000e+00
    outer loop
      vertex   3.512062e+01 7.206596e+01 1.400000e+02
      vertex   3.526795e+01 7.175000e+01 1.340000e+02
      vertex   3.512062e+01 7.206596e+01 1.340000e+02
    endloop
  endfacet
  facet normal 9.659258e-01 2.588190e-01 0.000000e+00
    outer loop
      vertex   3.512062e+01 7.206596e+01 1.400000e+02
      vertex   3.512062e+01 7.206596e+01 1.340000e+02
      vertex   3.503039e+01 7.240270e+01 1.400000e+02
    endloop
  endfacet
  facet normal 9.659258e-01 2.588190e-01 0.000000e+00
    outer loop
      vertex   3.503039e+01 7.240270e+01 1.400000e+02
      vertex   3.512062e+01 7.206596e+01 1.340000e+02
      vertex   3.503039e+01 7.240270e+01 1.340000e+02
    endloop
  endfacet
  facet normal 9.961947e-01 8.715574e-02 0.000000e+00
    outer loop
      vertex   3.503039e+01 7.240270e+01 1.400000e+02
      vertex   3.503039e+01 7.240270e+01 1.340000e+02
      vertex   3.500000e+01 7.275000e+01 1.400000e+02
    endloop
  endfacet
  facet normal 9.961947e-01 8.715574e-02 0.000000e+00
    outer loop
      vertex   3.500000e+01 7.275000e+01 1.400000e+02
      vertex   3.503039e+01 7.240270e+01 1.340000e+02
      vertex   3.500000e+01 7.275000e+01 1.340000e+02
    endloop
  endfacet
  facet normal 0.000000e+00 1.000000e+00 -0.000000e+00
    outer loop
      vertex   3.825000e+01 7.075000e+01 1.340000e+02
      vertex   3.700000e+01 7.075000e+01 1.340000e+02
      vertex   3.825000e+01 7.075000e+01 1.400000e+02
    endloop
  endfacet
  facet normal 0.000000e+00 1.000000e+00 0.000000e+00
    outer loop
      vertex   3.825000e+01 7.075000e+01 1.400000e+02
      vertex   3.700000e+01 7.075000e+01 1.340000e+02
      vertex   3.700000e+01 7.075000e+01 1.400000e+02
    endloop
  endfacet
  facet normal -9.961947e-01 8.715574e-02 0.000000e+00
    outer loop
      vertex   4.025000e+01 7.275000e+01 1.400000e+02
      vertex   4.025000e+01 7.275000e+01 1.340000e+02
      vertex   4.021962e+01 7.240270e+01 1.400000e+02
    endloop
  endfacet
  facet normal -9.961947e-01 8.715574e-02 0.000000e+00
    outer loop
      vertex   4.021962e+01 7.240270e+01 1.400000e+02
      vertex   4.025000e+01 7.275000e+01 1.340000e+02
      vertex   4.021962e+01 7.240270e+01 1.340000e+02
    endloop
  endfacet
  facet normal -9.659258e-01 2.588190e-01 0.000000e+00
    outer loop
      vertex   4.021962e+01 7.240270e+01 1.400000e+02
      vertex   4.021962e+01 7.240270e+01 1.340000e+02
      vertex   4.012939e+01 7.206596e+01 1.400000e+02
    endloop
  endfacet
  facet normal -9.659258e-01 2.588190e-01 0.000000e+00
    outer loop
      vertex   4.012939e+01 7.206596e+01 1.400000e+02
      vertex   4.021962e+01 7.240270e+01 1.340000e+02
      vertex   4.012939e+01 7.206596e+01 1.340000e+02
    endloop
  endfacet
  facet normal -9.063078e-01 4.226183e-01 0.000000e+00
    outer loop
      vertex   4.012939e+01 7.206596e+01 1.400000e+02
      vertex   4.012939e+01 7.206596e+01 1.340000e+02
      vertex   3.998205e+01 7.175000e+01 1.400000e+02
    endloop
  endfacet
  facet normal -9.063078e-01 4.226183e-01 0.000000e+00
    outer loop
      vertex   3.998205e+01 7.175000e+01 1.400000e+02
      vertex   4.012939e+01 7.206596e+01 1.340000e+02
      vertex   3.998205e+01 7.175000e+01 1.340000e+02
    endloop
  endfacet
  facet normal -8.191520e-01 5.735764e-01 0.000000e+00
    outer loop
      vertex   3.998205e+01 7.175000e+01 1.400000e+02
      vertex   3.998205e+01 7.175000e+01 1.340000e+02
      vertex   3.978209e+01 7.146443e+01 1.400000e+02
    endloop
  endfacet
  facet normal -8.191520e-01 5.735764e-01 0.000000e+00
    outer loop
      vertex   3.978209e+01 7.146443e+01 1.400000e+02
      vertex   3.998205e+01 7.175000e+01 1.340000e+02
      vertex   3.978209e+01 7.146443e+01 1.340000e+02
    endloop
  endfacet
  facet normal -7.071068e-01 7.071068e-01 0.000000e+00
    outer loop
      vertex   3.978209e+01 7.146443e+01 1.400000e+02
      vertex   3.978209e+01 7.146443e+01 1.340000e+02
      vertex   3.953558e+01 7.121791e+01 1.400000e+02
    endloop
  endfacet
  facet normal -7.071068e-01 7.071068e-01 0.000000e+00
    outer loop
      vertex   3.953558e+01 7.121791e+01 1.400000e+02
      vertex   3.978209e+01 7.146443e+01 1.340000e+02
      vertex   3.953558e+01 7.121791e+01 1.340000e+02
    endloop
  endfacet
  facet normal -5.735764e-01 8.191520e-01 0.000000e+00
    outer loop
      vertex   3.953558e+01 7.121791e+01 1.400000e+02
      vertex   3.953558e+01 7.121791e+01 1.340000e+02
      vertex   3.925000e+01 7.101795e+01 1.400000e+02
    endloop
  endfacet
  facet normal -5.735764e-01 8.191520e-01 0.000000e+00
    outer loop
      vertex   3.925000e+01 7.101795e+01 1.400000e+02
      vertex   3.953558e+01 7.121791e+01 1.340000e+02
      vertex   3.925000e+01 7.101795e+01 1.340000e+02
    endloop
  endfacet
  facet normal -4.226183e-01 9.063078e-01 0.000000e+00
    outer loop
      vertex   3.925000e+01 7.101795e+01 1.400000e+02
      vertex   3.925000e+01 7.101795e+01 1.340000e+02
      vertex   3.893404e+01 7.087062e+01 1.400000e+02
    endloop
  endfacet
  facet normal -4.226183e-01 9.063078e-01 0.000000e+00
    outer loop
      vertex   3.893404e+01 7.087062e+01 1.400000e+02
      vertex   3.925000e+01 7.101795e+01 1.340000e+02
      vertex   3.893404e+01 7.087062e+01 1.340000e+02
    endloop
  endfacet
  facet normal -2.588190e-01 9.659258e-01 0.000000e+00
    outer loop
      vertex   3.893404e+01 7.087062e+01 1.400000e+02
      vertex   3.893404e+01 7.087062e+01 1.340000e+02
      vertex   3.859730e+01 7.078039e+01 1.400000e+02
    endloop
  endfacet
  facet normal -2.588190e-01 9.659258e-01 0.000000e+00
    outer loop
      vertex   3.859730e+01 7.078039e+01 1.400000e+02
      vertex   3.893404e+01 7.087062e+01 1.340000e+02
      vertex   3.859730e+01 7.078039e+01 1.340000e+02
    endloop
  endfacet
  facet normal -8.715574e-02 9.961947e-01 0.000000e+00
    outer loop
      vertex   3.859730e+01 7.078039e+01 1.400000e+02
      vertex   3.859730e+01 7.078039e+01 1.340000e+02
      vertex   3.825000e+01 7.075000e+01 1.400000e+02
    endloop
  endfacet
  facet normal -8.715574e-02 9.961947e-01 0.000000e+00
    outer loop
      vertex   3.825000e+01 7.075000e+01 1.400000e+02
      vertex   3.859730e+01 7.078039e+01 1.340000e+02
      vertex   3.825000e+01 7.075000e+01 1.340000e+02
    endloop
  endfacet
  facet normal -1.000000e+00 0.000000e+00 0.000000e+00
    outer loop
      vertex   4.025000e+01 7.275000e+01 1.340000e+02
      vertex   4.025000e+01 7.275000e+01 1.400000e+02
      vertex   4.025000e+01 7.300000e+01 1.340000e+02
    endloop
  endfacet
  facet normal -1.000000e+00 0.000000e+00 0.000000e+00
    outer loop
      vertex   4.025000e+01 7.300000e+01 1.340000e+02
      vertex   4.025000e+01 7.275000e+01 1.400000e+02
      vertex   4.025000e+01 7.300000e+01 1.400000e+02
    endloop
  endfacet
  facet normal -8.715574e-02 -9.961947e-01 -0.000000e+00
    outer loop
      vertex   3.825000e+01 7.500000e+01 1.400000e+02
      vertex   3.825000e+01 7.500000e+01 1.340000e+02
      vertex   3.859730e+01 7.496962e+01 1.400000e+02
    endloop
  endfacet
  facet normal -8.715574e-02 -9.961947e-01 -0.000000e+00
    outer loop
      vertex   3.859730e+01 7.496962e+01 1.400000e+02
      vertex   3.825000e+01 7.500000e+01 1.340000e+02
      vertex   3.859730e+01 7.496962e+01 1.340000e+02
    endloop
  endfacet
  facet normal -2.588190e-01 -9.659258e-01 -0.000000e+00
    outer loop
      vertex   3.859730e+01 7.496962e+01 1.400000e+02
      vertex   3.859730e+01 7.496962e+01 1.340000e+02
      vertex   3.893404e+01 7.487939e+01 1.400000e+02
    endloop
  endfacet
  facet normal -2.588190e-01 -9.659258e-01 -0.000000e+00
    outer loop
      vertex   3.893404e+01 7.487939e+01 1.400000e+02
      vertex   3.859730e+01 7.496962e+01 1.340000e+02
      vertex   3.893404e+01 7.487939e+01 1.340000e+02
    endloop
  endfacet
  facet normal -4.226183e-01 -9.063078e-01 -0.000000e+00
    outer loop
      vertex   3.893404e+01 7.487939e+01 1.400000e+02
      vertex   3.893404e+01 7.487939e+01 1.340000e+02
      vertex   3.925000e+01 7.473205e+01 1.400000e+02
    endloop
  endfacet
  facet normal -4.226183e-01 -9.063078e-01 -0.000000e+00
    outer loop
      vertex   3.925000e+01 7.473205e+01 1.400000e+02
      vertex   3.893404e+01 7.487939e+01 1.340000e+02
      vertex   3.925000e+01 7.473205e+01 1.340000e+02
    endloop
  endfacet
  facet normal -5.735764e-01 -8.191520e-01 -0.000000e+00
    outer loop
      vertex   3.925000e+01 7.473205e+01 1.400000e+02
      vertex   3.925000e+01 7.473205e+01 1.340000e+02
      vertex   3.953558e+01 7.453209e+01 1.400000e+02
    endloop
  endfacet
  facet normal -5.735764e-01 -8.191520e-01 -0.000000e+00
    outer loop
      vertex   3.953558e+01 7.453209e+01 1.400000e+02
      vertex   3.925000e+01 7.473205e+01 1.340000e+02
      vertex   3.953558e+01 7.453209e+01 1.340000e+02
    endloop
  endfacet
  facet normal -7.071068e-01 -7.071068e-01 -0.000000e+00
    outer loop
      vertex   3.953558e+01 7.453209e+01 1.400000e+02
      vertex   3.953558e+01 7.453209e+01 1.340000e+02
      vertex   3.978209e+01 7.428558e+01 1.400000e+02
    endloop
  endfacet
  facet normal -7.071068e-01 -7.071068e-01 -0.000000e+00
    outer loop
      vertex   3.978209e+01 7.428558e+01 1.400000e+02
      vertex   3.953558e+01 7.453209e+01 1.340000e+02
      vertex   3.978209e+01 7.428558e+01 1.340000e+02
    endloop
  endfacet
  facet normal -8.191520e-01 -5.735764e-01 -0.000000e+00
    outer loop
      vertex   3.978209e+01 7.428558e+01 1.400000e+02
      vertex   3.978209e+01 7.428558e+01 1.340000e+02
      vertex   3.998205e+01 7.400000e+01 1.400000e+02
    endloop
  endfacet
  facet normal -8.191520e-01 -5.735764e-01 -0.000000e+00
    outer loop
      vertex   3.998205e+01 7.400000e+01 1.400000e+02
      vertex   3.978209e+01 7.428558e+01 1.340000e+02
      vertex   3.998205e+01 7.400000e+01 1.340000e+02
    endloop
  endfacet
  facet normal -9.063078e-01 -4.226183e-01 -0.000000e+00
    outer loop
      vertex   3.998205e+01 7.400000e+01 1.400000e+02
      vertex   3.998205e+01 7.400000e+01 1.340000e+02
      vertex   4.012939e+01 7.368404e+01 1.400000e+02
    endloop
  endfacet
  facet normal -9.063078e-01 -4.226183e-01 -0.000000e+00
    outer loop
      vertex   4.012939e+01 7.368404e+01 1.400000e+02
      vertex   3.998205e+01 7.400000e+01 1.340000e+02
      vertex   4.012939e+01 7.368404e+01 1.340000e+02
    endloop
  endfacet
  facet normal -9.659258e-01 -2.588190e-01 -0.000000e+00
    outer loop
      vertex   4.012939e+01 7.368404e+01 1.400000e+02
      vertex   4.012939e+01 7.368404e+01 1.340000e+02
      vertex   4.021962e+01 7.334730e+01 1.400000e+02
    endloop
  endfacet
  facet normal -9.659258e-01 -2.588190e-01 -0.000000e+00
    outer loop
      vertex   4.021962e+01 7.334730e+01 1.400000e+02
      vertex   4.012939e+01 7.368404e+01 1.340000e+02
      vertex   4.021962e+01 7.334730e+01 1.340000e+02
    endloop
  endfacet
  facet normal -9.961947e-01 -8.715574e-02 -0.000000e+00
    outer loop
      vertex   4.021962e+01 7.334730e+01 1.400000e+02
      vertex   4.021962e+01 7.334730e+01 1.340000e+02
      vertex   4.025000e+01 7.300000e+01 1.400000e+02
    endloop
  endfacet
  facet normal -9.961947e-01 -8.715574e-02 -0.000000e+00
    outer loop
      vertex   4.025000e+01 7.300000e+01 1.400000e+02
      vertex   4.021962e+01 7.334730e+01 1.340000e+02
      vertex   4.025000e+01 7.300000e+01 1.340000e+02
    endloop
  endfacet
  facet normal 4.684000e-16 1.000000e+00 0.000000e+00
    outer loop
      vertex   -4.550871e+01 8.398411e+01 1.400000e+02
      vertex   4.550871e+01 8.398411e+01 1.400000e+02
      vertex   -4.550871e+01 8.398411e+01 1.340000e+02
    endloop
  endfacet
  facet normal 4.684000e-16 1.000000e+00 0.000000e+00
    outer loop
      vertex   -4.550871e+01 8.398411e+01 1.340000e+02
      vertex   4.550871e+01 8.398411e+01 1.400000e+02
      vertex   4.550871e+01 8.398411e+01 1.340000e+02
    endloop
  endfacet
  facet normal -8.660254e-01 5.000000e-01 0.000000e+00
    outer loop
      vertex   -5.952808e+01 5.970184e+01 1.400000e+02
      vertex   -4.550871e+01 8.398411e+01 1.400000e+02
      vertex   -5.952808e+01 5.970184e+01 1.340000e+02
    endloop
  endfacet
  facet normal -8.660254e-01 5.000000e-01 0.000000e+00
    outer loop
      vertex   -5.952808e+01 5.970184e+01 1.340000e+02
      vertex   -4.550871e+01 8.398411e+01 1.400000e+02
      vertex   -4.550871e+01 8.398411e+01 1.340000e+02
    endloop
  endfacet
  facet normal 8.660254e-01 5.000000e-01 0.000000e+00
    outer loop
      vertex   4.550871e+01 8.398411e+01 1.400000e+02
      vertex   5.952808e+01 5.970184e+01 1.400000e+02
      vertex   4.550871e+01 8.398411e+01 1.340000e+02
    endloop
  endfacet
  facet normal 8.660254e-01 5.000000e-01 0.000000e+00
    outer loop
      vertex   4.550871e+01 8.398411e+01 1.340000e+02
      vertex   5.952808e+01 5.970184e+01 1.400000e+02
      vertex   5.952808e+01 5.970184e+01 1.340000e+02
    endloop
  endfacet
  facet normal 0.000000e+00 0.000000e+00 -1.000000e+00
    outer loop
      vertex   3.665270e+01 7.078039e+01 1.340000e+02
      vertex   3.700000e+01 7.075000e+01 1.340000e+02
      vertex   5.952808e+01 5.970184e+01 1.340000e+02
    endloop
  endfacet
  facet normal 0.000000e+00 0.000000e+00 -1.000000e+00
    outer loop
      vertex   5.952808e+01 5.970184e+01 1.340000e+02
      vertex   3.700000e+01 7.075000e+01 1.340000e+02
      vertex   3.825000e+01 7.075000e+01 1.340000e+02
    endloop
  endfacet
  facet normal 0.000000e+00 0.000000e+00 -1.000000e+00
    outer loop
      vertex   5.952808e+01 5.970184e+01 1.340000e+02
      vertex   3.825000e+01 7.075000e+01 1.340000e+02
      vertex   3.859730e+01 7.078039e+01 1.340000e+02
    endloop
  endfacet
  facet normal 0.000000e+00 0.000000e+00 -1.000000e+00
    outer loop
      vertex   3.859730e+01 7.078039e+01 1.340000e+02
      vertex   3.893404e+01 7.087062e+01 1.340000e+02
      vertex   5.952808e+01 5.970184e+01 1.340000e+02
    endloop
  endfacet
  facet normal 0.000000e+00 0.000000e+00 -1.000000e+00
    outer loop
      vertex   5.952808e+01 5.970184e+01 1.340000e+02
      vertex   3.893404e+01 7.087062e+01 1.340000e+02
      vertex   3.925000e+01 7.101795e+01 1.340000e+02
    endloop
  endfacet
  facet normal 0.000000e+00 0.000000e+00 -1.000000e+00
    outer loop
      vertex   5.952808e+01 5.970184e+01 1.340000e+02
      vertex   3.925000e+01 7.101795e+01 1.340000e+02
      vertex   3.953558e+01 7.121791e+01 1.340000e+02
    endloop
  endfacet
  facet normal 0.000000e+00 0.000000e+00 -1.000000e+00
    outer loop
      vertex   3.953558e+01 7.121791e+01 1.340000e+02
      vertex   3.978209e+01 7.146443e+01 1.340000e+02
      vertex   5.952808e+01 5.970184e+01 1.340000e+02
    endloop
  endfacet
  facet normal 0.000000e+00 0.000000e+00 -1.000000e+00
    outer loop
      vertex   5.952808e+01 5.970184e+01 1.340000e+02
      vertex   3.978209e+01 7.146443e+01 1.340000e+02
      vertex   3.998205e+01 7.175000e+01 1.340000e+02
    endloop
  endfacet
  facet normal 0.000000e+00 0.000000e+00 -1.000000e+00
    outer loop
      vertex   5.952808e+01 5.970184e+01 1.340000e+02
      vertex   3.998205e+01 7.175000e+01 1.340000e+02
      vertex   4.012939e+01 7.206596e+01 1.340000e+02
    endloop
  endfacet
  facet normal 0.000000e+00 0.000000e+00 -1.000000e+00
    outer loop
      vertex   4.012939e+01 7.206596e+01 1.340000e+02
      vertex   4.021962e+01 7.240270e+01 1.340000e+02
      vertex   5.952808e+01 5.970184e+01 1.340000e+02
    endloop
  endfacet
  facet normal 0.000000e+00 0.000000e+00 -1.000000e+00
    outer loop
      vertex   5.952808e+01 5.970184e+01 1.340000e+02
      vertex   4.021962e+01 7.240270e+01 1.340000e+02
      vertex   4.025000e+01 7.275000e+01 1.340000e+02
    endloop
  endfacet
  facet normal 0.000000e+00 0.000000e+00 -1.000000e+00
    outer loop
      vertex   5.952808e+01 5.970184e+01 1.340000e+02
      vertex   4.025000e+01 7.275000e+01 1.340000e+02
      vertex   4.025000e+01 7.300000e+01 1.340000e+02
    endloop
  endfacet
  facet normal 0.000000e+00 0.000000e+00 -1.000000e+00
    outer loop
      vertex   4.025000e+01 7.300000e+01 1.340000e+02
      vertex   4.021962e+01 7.334730e+01 1.340000e+02
      vertex   5.952808e+01 5.970184e+01 1.340000e+02
    endloop
  endfacet
  facet normal 0.000000e+00 0.000000e+00 -1.000000e+00
    outer loop
      vertex   5.952808e+01 5.970184e+01 1.340000e+02
      vertex   4.021962e+01 7.334730e+01 1.340000e+02
      vertex   4.012939e+01 7.368404e+01 1.340000e+02
    endloop
  endfacet
  facet normal 0.000000e+00 0.000000e+00 -1.000000e+00
    outer loop
      vertex   5.952808e+01 5.970184e+01 1.340000e+02
      vertex   4.012939e+01 7.368404e+01 1.340000e+02
      vertex   4.550871e+01 8.398411e+01 1.340000e+02
    endloop
  endfacet
  facet normal 0.000000e+00 0.000000e+00 -1.000000e+00
    outer loop
      vertex   4.550871e+01 8.398411e+01 1.340000e+02
      vertex   4.012939e+01 7.368404e+01 1.340000e+02
      vertex   3.998205e+01 7.400000e+01 1.340000e+02
    endloop
  endfacet
  facet normal 0.000000e+00 0.000000e+00 -1.000000e+00
    outer loop
      vertex   4.550871e+01 8.398411e+01 1.340000e+02
      vertex   3.998205e+01 7.400000e+01 1.340000e+02
      vertex   3.978209e+01 7.428558e+01 1.340000e+02
    endloop
  endfacet
  facet normal 0.000000e+00 0.000000e+00 -1.000000e+00
    outer loop
      vertex   3.978209e+01 7.428558e+01 1.340000e+02
      vertex   3.953558e+01 7.453209e+01 1.340000e+02
      vertex   4.550871e+01 8.398411e+01 1.340000e+02
    endloop
  endfacet
  facet normal 0.000000e+00 0.000000e+00 -1.000000e+00
    outer loop
      vertex   4.550871e+01 8.398411e+01 1.340000e+02
      vertex   3.953558e+01 7.453209e+01 1.340000e+02
      vertex   3.925000e+01 7.473205e+01 1.340000e+02
    endloop
  endfacet
  facet normal 0.000000e+00 0.000000e+00 -1.000000e+00
    outer loop
      vertex   4.550871e+01 8.398411e+01 1.340000e+02
      vertex   3.925000e+01 7.473205e+01 1.340000e+02
      vertex   3.893404e+01 7.487939e+01 1.340000e+02
    endloop
  endfacet
  facet normal 0.000000e+00 0.000000e+00 -1.000000e+00
    outer loop
      vertex   3.893404e+01 7.487939e+01 1.340000e+02
      vertex   3.859730e+01 7.496962e+01 1.340000e+02
      vertex   4.550871e+01 8.398411e+01 1.340000e+02
    endloop
  endfacet
  facet normal 0.000000e+00 0.000000e+00 -1.000000e+00
    outer loop
      vertex   4.550871e+01 8.398411e+01 1.340000e+02
      vertex   3.859730e+01 7.496962e+01 1.340000e+02
      vertex   3.825000e+01 7.500000e+01 1.340000e+02
    endloop
  endfacet
  facet normal 0.000000e+00 0.000000e+00 -1.000000e+00
    outer loop
      vertex   4.550871e+01 8.398411e+01 1.340000e+02
      vertex   3.825000e+01 7.500000e+01 1.340000e+02
      vertex   3.700000e+01 7.500000e+01 1.340000e+02
    endloop
  endfacet
  facet normal -0.000000e+00 0.000000e+00 -1.000000e+00
    outer loop
      vertex   3.700000e+01 7.500000e+01 1.340000e+02
      vertex   3.665270e+01 7.496962e+01 1.340000e+02
      vertex   4.550871e+01 8.398411e+01 1.340000e+02
    endloop
  endfacet
  facet normal -0.000000e+00 0.000000e+00 -1.000000e+00
    outer loop
      vertex   4.550871e+01 8.398411e+01 1.340000e+02
      vertex   3.665270e+01 7.496962e+01 1.340000e+02
      vertex   -4.550871e+01 8.398411e+01 1.340000e+02
    endloop
  endfacet
  facet normal 0.000000e+00 0.000000e+00 -1.000000e+00
    outer loop
      vertex   -4.550871e+01 8.398411e+01 1.340000e+02
      vertex   3.665270e+01 7.496962e+01 1.340000e+02
      vertex   3.631596e+01 7.487939e+01 1.340000e+02
    endloop
  endfacet
  facet normal 0.000000e+00 0.000000e+00 -1.000000e+00
    outer loop
      vertex   -4.550871e+01 8.398411e+01 1.340000e+02
      vertex   3.631596e+01 7.487939e+01 1.340000e+02
      vertex   3.600000e+01 7.473205e+01 1.340000e+02
    endloop
  endfacet
  facet normal -0.000000e+00 0.000000e+00 -1.000000e+00
    outer loop
      vertex   3.600000e+01 7.473205e+01 1.340000e+02
      vertex   3.571443e+01 7.453209e+01 1.340000e+02
      vertex   -4.550871e+01 8.398411e+01 1.340000e+02
    endloop
  endfacet
  facet normal 0.000000e+00 0.000000e+00 -1.000000e+00
    outer loop
      vertex   -4.550871e+01 8.398411e+01 1.340000e+02
      vertex   3.571443e+01 7.453209e+01 1.340000e+02
      vertex   3.546791e+01 7.428558e+01 1.340000e+02
    endloop
  endfacet
  facet normal 0.000000e+00 0.000000e+00 -1.000000e+00
    outer loop
      vertex   -4.550871e+01 8.398411e+01 1.340000e+02
      vertex   3.546791e+01 7.428558e+01 1.340000e+02
      vertex   3.526795e+01 7.400000e+01 1.340000e+02
    endloop
  endfacet
  facet normal -0.000000e+00 0.000000e+00 -1.000000e+00
    outer loop
      vertex   3.526795e+01 7.400000e+01 1.340000e+02
      vertex   3.512062e+01 7.368404e+01 1.340000e+02
      vertex   -4.550871e+01 8.398411e+01 1.340000e+02
    endloop
  endfacet
  facet normal 0.000000e+00 0.000000e+00 -1.000000e+00
    outer loop
      vertex   -4.550871e+01 8.398411e+01 1.340000e+02
      vertex   3.512062e+01 7.368404e+01 1.340000e+02
      vertex   3.503039e+01 7.334730e+01 1.340000e+02
    endloop
  endfacet
  facet normal 0.000000e+00 0.000000e+00 -1.000000e+00
    outer loop
      vertex   -4.550871e+01 8.398411e+01 1.340000e+02
      vertex   3.503039e+01 7.334730e+01 1.340000e+02
      vertex   3.500000e+01 7.300000e+01 1.340000e+02
    endloop
  endfacet
  facet normal -0.000000e+00 0.000000e+00 -1.000000e+00
    outer loop
      vertex   3.500000e+01 7.300000e+01 1.340000e+02
      vertex   3.500000e+01 7.275000e+01 1.340000e+02
      vertex   -4.550871e+01 8.398411e+01 1.340000e+02
    endloop
  endfacet
  facet normal 0.000000e+00 0.000000e+00 -1.000000e+00
    outer loop
      vertex   -4.550871e+01 8.398411e+01 1.340000e+02
      vertex   3.500000e+01 7.275000e+01 1.340000e+02
      vertex   3.503039e+01 7.240270e+01 1.340000e+02
    endloop
  endfacet
  facet normal 0.000000e+00 0.000000e+00 -1.000000e+00
    outer loop
      vertex   -4.550871e+01 8.398411e+01 1.340000e+02
      vertex   3.503039e+01 7.240270e+01 1.340000e+02
      vertex   3.512062e+01 7.206596e+01 1.340000e+02
    endloop
  endfacet
  facet normal 0.000000e+00 -0.000000e+00 -1.000000e+00
    outer loop
      vertex   -4.550871e+01 8.398411e+01 1.340000e+02
      vertex   3.512062e+01 7.206596e+01 1.340000e+02
      vertex   -5.952808e+01 5.970184e+01 1.340000e+02
    endloop
  endfacet
  facet normal 0.000000e+00 0.000000e+00 -1.000000e+00
    outer loop
      vertex   -5.952808e+01 5.970184e+01 1.340000e+02
      vertex   3.512062e+01 7.206596e+01 1.340000e+02
      vertex   3.526795e+01 7.175000e+01 1.340000e+02
    endloop
  endfacet
  facet normal 0.000000e+00 0.000000e+00 -1.000000e+00
    outer loop
      vertex   -5.952808e+01 5.970184e+01 1.340000e+02
      vertex   3.526795e+01 7.175000e+01 1.340000e+02
      vertex   3.546791e+01 7.146443e+01 1.340000e+02
    endloop
  endfacet
  facet normal 0.000000e+00 -0.000000e+00 -1.000000e+00
    outer loop
      vertex   3.546791e+01 7.146443e+01 1.340000e+02
      vertex   3.571443e+01 7.121791e+01 1.340000e+02
      vertex   -5.952808e+01 5.970184e+01 1.340000e+02
    endloop
  endfacet
  facet normal 0.000000e+00 0.000000e+00 -1.000000e+00
    outer loop
      vertex   -5.952808e+01 5.970184e+01 1.340000e+02
      vertex   3.571443e+01 7.121791e+01 1.340000e+02
      vertex   3.600000e+01 7.101795e+01 1.340000e+02
    endloop
  endfacet
  facet normal 0.000000e+00 0.000000e+00 -1.000000e+00
    outer loop
      vertex   -5.952808e+01 5.970184e+01 1.340000e+02
      vertex   3.600000e+01 7.101795e+01 1.340000e+02
      vertex   3.631596e+01 7.087062e+01 1.340000e+02
    endloop
  endfacet
  facet normal 0.000000e+00 -0.000000e+00 -1.000000e+00
    outer loop
      vertex   3.631596e+01 7.087062e+01 1.340000e+02
      vertex   3.665270e+01 7.078039e+01 1.340000e+02
      vertex   -5.952808e+01 5.970184e+01 1.340000e+02
    endloop
  endfacet
  facet normal 0.000000e+00 0.000000e+00 -1.000000e+00
    outer loop
      vertex   -5.952808e+01 5.970184e+01 1.340000e+02
      vertex   3.665270e+01 7.078039e+01 1.340000e+02
      vertex   5.952808e+01 5.970184e+01 1.340000e+02
    endloop
  endfacet
  facet normal -5.773503e-01 -8.164966e-01 0.000000e+00
    outer loop
      vertex   -6.148906e+01 5.683774e+01 5.520000e+01
      vertex   -6.148906e+01 5.683774e+01 1.400000e+02
      vertex   -6.340515e+01 5.819262e+01 5.520000e+01
    endloop
  endfacet
  facet normal -5.773503e-01 -8.164966e-01 0.000000e+00
    outer loop
      vertex   -6.340515e+01 5.819262e+01 5.520000e+01
      vertex   -6.148906e+01 5.683774e+01 1.400000e+02
      vertex   -6.340515e+01 5.819262e+01 1.400000e+02
    endloop
  endfacet
  facet normal 1.789930e-15 -1.000000e+00 0.000000e+00
    outer loop
      vertex   5.751940e+01 5.683774e+01 5.520000e+01
      vertex   6.148906e+01 5.683774e+01 5.520000e+01
      vertex   5.751940e+01 5.683774e+01 6.320000e+01
    endloop
  endfacet
  facet normal 1.789930e-15 -1.000000e+00 0.000000e+00
    outer loop
      vertex   5.751940e+01 5.683774e+01 6.320000e+01
      vertex   6.148906e+01 5.683774e+01 5.520000e+01
      vertex   6.148906e+01 5.683774e+01 1.400000e+02
    endloop
  endfacet
  facet normal 0.000000e+00 -1.000000e+00 9.251859e-17
    outer loop
      vertex   5.751940e+01 5.683774e+01 6.320000e+01
      vertex   6.148906e+01 5.683774e+01 1.400000e+02
      vertex   5.251940e+01 5.683774e+01 6.320000e+01
    endloop
  endfacet
  facet normal 5.777798e-17 -1.000000e+00 8.577055e-17
    outer loop
      vertex   5.251940e+01 5.683774e+01 6.320000e+01
      vertex   6.148906e+01 5.683774e+01 1.400000e+02
      vertex   -6.148906e+01 5.683774e+01 1.400000e+02
    endloop
  endfacet
  facet normal -0.000000e+00 -1.000000e+00 0.000000e+00
    outer loop
      vertex   5.251940e+01 5.683774e+01 6.320000e+01
      vertex   -6.148906e+01 5.683774e+01 1.400000e+02
      vertex   -6.148906e+01 5.683774e+01 5.520000e+01
    endloop
  endfacet
  facet normal 0.000000e+00 -1.000000e+00 0.000000e+00
    outer loop
      vertex   -6.148906e+01 5.683774e+01 5.520000e+01
      vertex   5.251940e+01 5.683774e+01 5.520000e+01
      vertex   5.251940e+01 5.683774e+01 6.320000e+01
    endloop
  endfacet
  facet normal 5.773503e-01 -8.164966e-01 0.000000e+00
    outer loop
      vertex   6.340515e+01 5.819262e+01 5.520000e+01
      vertex   6.340515e+01 5.819262e+01 1.400000e+02
      vertex   6.148906e+01 5.683774e+01 5.520000e+01
    endloop
  endfacet
  facet normal 5.773503e-01 -8.164966e-01 0.000000e+00
    outer loop
      vertex   6.148906e+01 5.683774e+01 5.520000e+01
      vertex   6.340515e+01 5.819262e+01 1.400000e+02
      vertex   6.148906e+01 5.683774e+01 1.400000e+02
    endloop
  endfacet
  facet normal 3.627544e-01 9.318848e-01 -0.000000e+00
    outer loop
      vertex   5.952808e+01 5.970184e+01 5.520000e+01
      vertex   5.952808e+01 5.970184e+01 1.340000e+02
      vertex   6.340515e+01 5.819262e+01 5.520000e+01
    endloop
  endfacet
  facet normal 3.627544e-01 9.318848e-01 -0.000000e+00
    outer loop
      vertex   6.340515e+01 5.819262e+01 5.520000e+01
      vertex   5.952808e+01 5.970184e+01 1.340000e+02
      vertex   6.340515e+01 5.819262e+01 1.400000e+02
    endloop
  endfacet
  facet normal 3.627544e-01 9.318848e-01 0.000000e+00
    outer loop
      vertex   6.340515e+01 5.819262e+01 1.400000e+02
      vertex   5.952808e+01 5.970184e+01 1.340000e+02
      vertex   5.952808e+01 5.970184e+01 1.400000e+02
    endloop
  endfacet
  facet normal -3.627544e-01 9.318848e-01 0.000000e+00
    outer loop
      vertex   -5.952808e+01 5.970184e+01 5.520000e+01
      vertex   -6.340515e+01 5.819262e+01 5.520000e+01
      vertex   -5.952808e+01 5.970184e+01 1.340000e+02
    endloop
  endfacet
  facet normal -3.627544e-01 9.318848e-01 0.000000e+00
    outer loop
      vertex   -5.952808e+01 5.970184e+01 1.340000e+02
      vertex   -6.340515e+01 5.819262e+01 5.520000e+01
      vertex   -6.340515e+01 5.819262e+01 1.400000e+02
    endloop
  endfacet
  facet normal -3.627544e-01 9.318848e-01 0.000000e+00
    outer loop
      vertex   -5.952808e+01 5.970184e+01 1.340000e+02
      vertex   -6.340515e+01 5.819262e+01 1.400000e+02
      vertex   -5.952808e+01 5.970184e+01 1.400000e+02
    endloop
  endfacet
  facet normal 0.000000e+00 0.000000e+00 1.000000e+00
    outer loop
      vertex   3.859730e+01 7.078039e+01 1.400000e+02
      vertex   3.825000e+01 7.075000e+01 1.400000e+02
      vertex   5.952808e+01 5.970184e+01 1.400000e+02
    endloop
  endfacet
  facet normal 0.000000e+00 0.000000e+00 1.000000e+00
    outer loop
      vertex   5.952808e+01 5.970184e+01 1.400000e+02
      vertex   3.825000e+01 7.075000e+01 1.400000e+02
      vertex   3.700000e+01 7.075000e+01 1.400000e+02
    endloop
  endfacet
  facet normal 0.000000e+00 0.000000e+00 1.000000e+00
    outer loop
      vertex   5.952808e+01 5.970184e+01 1.400000e+02
      vertex   3.700000e+01 7.075000e+01 1.400000e+02
      vertex   3.665270e+01 7.078039e+01 1.400000e+02
    endloop
  endfacet
  facet normal 0.000000e+00 0.000000e+00 1.000000e+00
    outer loop
      vertex   5.952808e+01 5.970184e+01 1.400000e+02
      vertex   3.665270e+01 7.078039e+01 1.400000e+02
      vertex   -5.952808e+01 5.970184e+01 1.400000e+02
    endloop
  endfacet
  facet normal 0.000000e+00 0.000000e+00 1.000000e+00
    outer loop
      vertex   -5.952808e+01 5.970184e+01 1.400000e+02
      vertex   3.665270e+01 7.078039e+01 1.400000e+02
      vertex   3.631596e+01 7.087062e+01 1.400000e+02
    endloop
  endfacet
  facet normal 0.000000e+00 0.000000e+00 1.000000e+00
    outer loop
      vertex   -5.952808e+01 5.970184e+01 1.400000e+02
      vertex   3.631596e+01 7.087062e+01 1.400000e+02
      vertex   3.600000e+01 7.101795e+01 1.400000e+02
    endloop
  endfacet
  facet normal 0.000000e+00 0.000000e+00 1.000000e+00
    outer loop
      vertex   3.600000e+01 7.101795e+01 1.400000e+02
      vertex   3.571443e+01 7.121791e+01 1.400000e+02
      vertex   -5.952808e+01 5.970184e+01 1.400000e+02
    endloop
  endfacet
  facet normal 0.000000e+00 0.000000e+00 1.000000e+00
    outer loop
      vertex   -5.952808e+01 5.970184e+01 1.400000e+02
      vertex   3.571443e+01 7.121791e+01 1.400000e+02
      vertex   3.546791e+01 7.146443e+01 1.400000e+02
    endloop
  endfacet
  facet normal 0.000000e+00 0.000000e+00 1.000000e+00
    outer loop
      vertex   -5.952808e+01 5.970184e+01 1.400000e+02
      vertex   3.546791e+01 7.146443e+01 1.400000e+02
      vertex   3.526795e+01 7.175000e+01 1.400000e+02
    endloop
  endfacet
  facet normal 0.000000e+00 0.000000e+00 1.000000e+00
    outer loop
      vertex   3.526795e+01 7.175000e+01 1.400000e+02
      vertex   3.512062e+01 7.206596e+01 1.400000e+02
      vertex   -5.952808e+01 5.970184e+01 1.400000e+02
    endloop
  endfacet
  facet normal 0.000000e+00 0.000000e+00 1.000000e+00
    outer loop
      vertex   -5.952808e+01 5.970184e+01 1.400000e+02
      vertex   3.512062e+01 7.206596e+01 1.400000e+02
      vertex   -4.550871e+01 8.398411e+01 1.400000e+02
    endloop
  endfacet
  facet normal 0.000000e+00 0.000000e+00 1.000000e+00
    outer loop
      vertex   -4.550871e+01 8.398411e+01 1.400000e+02
      vertex   3.512062e+01 7.206596e+01 1.400000e+02
      vertex   3.503039e+01 7.240270e+01 1.400000e+02
    endloop
  endfacet
  facet normal 0.000000e+00 0.000000e+00 1.000000e+00
    outer loop
      vertex   -4.550871e+01 8.398411e+01 1.400000e+02
      vertex   3.503039e+01 7.240270e+01 1.400000e+02
      vertex   3.500000e+01 7.275000e+01 1.400000e+02
    endloop
  endfacet
  facet normal 0.000000e+00 -0.000000e+00 1.000000e+00
    outer loop
      vertex   3.500000e+01 7.275000e+01 1.400000e+02
      vertex   3.500000e+01 7.300000e+01 1.400000e+02
      vertex   -4.550871e+01 8.398411e+01 1.400000e+02
    endloop
  endfacet
  facet normal 0.000000e+00 0.000000e+00 1.000000e+00
    outer loop
      vertex   -4.550871e+01 8.398411e+01 1.400000e+02
      vertex   3.500000e+01 7.300000e+01 1.400000e+02
      vertex   3.503039e+01 7.334730e+01 1.400000e+02
    endloop
  endfacet
  facet normal 0.000000e+00 0.000000e+00 1.000000e+00
    outer loop
      vertex   -4.550871e+01 8.398411e+01 1.400000e+02
      vertex   3.503039e+01 7.334730e+01 1.400000e+02
      vertex   3.512062e+01 7.368404e+01 1.400000e+02
    endloop
  endfacet
  facet normal 0.000000e+00 -0.000000e+00 1.000000e+00
    outer loop
      vertex   3.512062e+01 7.368404e+01 1.400000e+02
      vertex   3.526795e+01 7.400000e+01 1.400000e+02
      vertex   -4.550871e+01 8.398411e+01 1.400000e+02
    endloop
  endfacet
  facet normal 0.000000e+00 0.000000e+00 1.000000e+00
    outer loop
      vertex   -4.550871e+01 8.398411e+01 1.400000e+02
      vertex   3.526795e+01 7.400000e+01 1.400000e+02
      vertex   3.546791e+01 7.428558e+01 1.400000e+02
    endloop
  endfacet
  facet normal 0.000000e+00 0.000000e+00 1.000000e+00
    outer loop
      vertex   -4.550871e+01 8.398411e+01 1.400000e+02
      vertex   3.546791e+01 7.428558e+01 1.400000e+02
      vertex   3.571443e+01 7.453209e+01 1.400000e+02
    endloop
  endfacet
  facet normal 0.000000e+00 -0.000000e+00 1.000000e+00
    outer loop
      vertex   3.571443e+01 7.453209e+01 1.400000e+02
      vertex   3.600000e+01 7.473205e+01 1.400000e+02
      vertex   -4.550871e+01 8.398411e+01 1.400000e+02
    endloop
  endfacet
  facet normal 0.000000e+00 0.000000e+00 1.000000e+00
    outer loop
      vertex   -4.550871e+01 8.398411e+01 1.400000e+02
      vertex   3.600000e+01 7.473205e+01 1.400000e+02
      vertex   3.631596e+01 7.487939e+01 1.400000e+02
    endloop
  endfacet
  facet normal 0.000000e+00 0.000000e+00 1.000000e+00
    outer loop
      vertex   -4.550871e+01 8.398411e+01 1.400000e+02
      vertex   3.631596e+01 7.487939e+01 1.400000e+02
      vertex   3.665270e+01 7.496962e+01 1.400000e+02
    endloop
  endfacet
  facet normal 0.000000e+00 0.000000e+00 1.000000e+00
    outer loop
      vertex   -4.550871e+01 8.398411e+01 1.400000e+02
      vertex   3.665270e+01 7.496962e+01 1.400000e+02
      vertex   4.550871e+01 8.398411e+01 1.400000e+02
    endloop
  endfacet
  facet normal 0.000000e+00 0.000000e+00 1.000000e+00
    outer loop
      vertex   4.550871e+01 8.398411e+01 1.400000e+02
      vertex   3.665270e+01 7.496962e+01 1.400000e+02
      vertex   3.700000e+01 7.500000e+01 1.400000e+02
    endloop
  endfacet
  facet normal 0.000000e+00 0.000000e+00 1.000000e+00
    outer loop
      vertex   4.550871e+01 8.398411e+01 1.400000e+02
      vertex   3.700000e+01 7.500000e+01 1.400000e+02
      vertex   3.825000e+01 7.500000e+01 1.400000e+02
    endloop
  endfacet
  facet normal -0.000000e+00 0.000000e+00 1.000000e+00
    outer loop
      vertex   3.825000e+01 7.500000e+01 1.400000e+02
      vertex   3.859730e+01 7.496962e+01 1.400000e+02
      vertex   4.550871e+01 8.398411e+01 1.400000e+02
    endloop
  endfacet
  facet normal 0.000000e+00 0.000000e+00 1.000000e+00
    outer loop
      vertex   4.550871e+01 8.398411e+01 1.400000e+02
      vertex   3.859730e+01 7.496962e+01 1.400000e+02
      vertex   3.893404e+01 7.487939e+01 1.400000e+02
    endloop
  endfacet
  facet normal 0.000000e+00 0.000000e+00 1.000000e+00
    outer loop
      vertex   4.550871e+01 8.398411e+01 1.400000e+02
      vertex   3.893404e+01 7.487939e+01 1.400000e+02
      vertex   3.925000e+01 7.473205e+01 1.400000e+02
    endloop
  endfacet
  facet normal -0.000000e+00 0.000000e+00 1.000000e+00
    outer loop
      vertex   3.925000e+01 7.473205e+01 1.400000e+02
      vertex   3.953558e+01 7.453209e+01 1.400000e+02
      vertex   4.550871e+01 8.398411e+01 1.400000e+02
    endloop
  endfacet
  facet normal 0.000000e+00 0.000000e+00 1.000000e+00
    outer loop
      vertex   4.550871e+01 8.398411e+01 1.400000e+02
      vertex   3.953558e+01 7.453209e+01 1.400000e+02
      vertex   3.978209e+01 7.428558e+01 1.400000e+02
    endloop
  endfacet
  facet normal 0.000000e+00 0.000000e+00 1.000000e+00
    outer loop
      vertex   4.550871e+01 8.398411e+01 1.400000e+02
      vertex   3.978209e+01 7.428558e+01 1.400000e+02
      vertex   3.998205e+01 7.400000e+01 1.400000e+02
    endloop
  endfacet
  facet normal -0.000000e+00 0.000000e+00 1.000000e+00
    outer loop
      vertex   3.998205e+01 7.400000e+01 1.400000e+02
      vertex   4.012939e+01 7.368404e+01 1.400000e+02
      vertex   4.550871e+01 8.398411e+01 1.400000e+02
    endloop
  endfacet
  facet normal 0.000000e+00 0.000000e+00 1.000000e+00
    outer loop
      vertex   4.550871e+01 8.398411e+01 1.400000e+02
      vertex   4.012939e+01 7.368404e+01 1.400000e+02
      vertex   5.952808e+01 5.970184e+01 1.400000e+02
    endloop
  endfacet
  facet normal 0.000000e+00 0.000000e+00 1.000000e+00
    outer loop
      vertex   5.952808e+01 5.970184e+01 1.400000e+02
      vertex   4.012939e+01 7.368404e+01 1.400000e+02
      vertex   4.021962e+01 7.334730e+01 1.400000e+02
    endloop
  endfacet
  facet normal 0.000000e+00 0.000000e+00 1.000000e+00
    outer loop
      vertex   5.952808e+01 5.970184e+01 1.400000e+02
      vertex   4.021962e+01 7.334730e+01 1.400000e+02
      vertex   4.025000e+01 7.300000e+01 1.400000e+02
    endloop
  endfacet
  facet normal 0.000000e+00 0.000000e+00 1.000000e+00
    outer loop
      vertex   4.025000e+01 7.300000e+01 1.400000e+02
      vertex   4.025000e+01 7.275000e+01 1.400000e+02
      vertex   5.952808e+01 5.970184e+01 1.400000e+02
    endloop
  endfacet
  facet normal 0.000000e+00 0.000000e+00 1.000000e+00
    outer loop
      vertex   5.952808e+01 5.970184e+01 1.400000e+02
      vertex   4.025000e+01 7.275000e+01 1.400000e+02
      vertex   4.021962e+01 7.240270e+01 1.400000e+02
    endloop
  endfacet
  facet normal 0.000000e+00 0.000000e+00 1.000000e+00
    outer loop
      vertex   5.952808e+01 5.970184e+01 1.400000e+02
      vertex   4.021962e+01 7.240270e+01 1.400000e+02
      vertex   4.012939e+01 7.206596e+01 1.400000e+02
    endloop
  endfacet
  facet normal 0.000000e+00 0.000000e+00 1.000000e+00
    outer loop
      vertex   4.012939e+01 7.206596e+01 1.400000e+02
      vertex   3.998205e+01 7.175000e+01 1.400000e+02
      vertex   5.952808e+01 5.970184e+01 1.400000e+02
    endloop
  endfacet
  facet normal 0.000000e+00 0.000000e+00 1.000000e+00
    outer loop
      vertex   5.952808e+01 5.970184e+01 1.400000e+02
      vertex   3.998205e+01 7.175000e+01 1.400000e+02
      vertex   3.978209e+01 7.146443e+01 1.400000e+02
    endloop
  endfacet
  facet normal 0.000000e+00 0.000000e+00 1.000000e+00
    outer loop
      vertex   5.952808e+01 5.970184e+01 1.400000e+02
      vertex   3.978209e+01 7.146443e+01 1.400000e+02
      vertex   3.953558e+01 7.121791e+01 1.400000e+02
    endloop
  endfacet
  facet normal 0.000000e+00 0.000000e+00 1.000000e+00
    outer loop
      vertex   3.953558e+01 7.121791e+01 1.400000e+02
      vertex   3.925000e+01 7.101795e+01 1.400000e+02
      vertex   5.952808e+01 5.970184e+01 1.400000e+02
    endloop
  endfacet
  facet normal 0.000000e+00 0.000000e+00 1.000000e+00
    outer loop
      vertex   5.952808e+01 5.970184e+01 1.400000e+02
      vertex   3.925000e+01 7.101795e+01 1.400000e+02
      vertex   3.893404e+01 7.087062e+01 1.400000e+02
    endloop
  endfacet
  facet normal 0.000000e+00 0.000000e+00 1.000000e+00
    outer loop
      vertex   5.952808e+01 5.970184e+01 1.400000e+02
      vertex   3.893404e+01 7.087062e+01 1.400000e+02
      vertex   3.859730e+01 7.078039e+01 1.400000e+02
    endloop
  endfacet
  facet normal -0.000000e+00 0.000000e+00 1.000000e+00
    outer loop
      vertex   -6.340515e+01 5.819262e+01 1.400000e+02
      vertex   -6.148906e+01 5.683774e+01 1.400000e+02
      vertex   -5.952808e+01 5.970184e+01 1.400000e+02
    endloop
  endfacet
  facet normal 0.000000e+00 0.000000e+00 1.000000e+00
    outer loop
      vertex   -5.952808e+01 5.970184e+01 1.400000e+02
      vertex   -6.148906e+01 5.683774e+01 1.400000e+02
      vertex   6.148906e+01 5.683774e+01 1.400000e+02
    endloop
  endfacet
  facet normal -0.000000e+00 0.000000e+00 1.000000e+00
    outer loop
      vertex   -5.952808e+01 5.970184e+01 1.400000e+02
      vertex   6.148906e+01 5.683774e+01 1.400000e+02
      vertex   5.952808e+01 5.970184e+01 1.400000e+02
    endloop
  endfacet
  facet normal 0.000000e+00 0.000000e+00 1.000000e+00
    outer loop
      vertex   5.952808e+01 5.970184e+01 1.400000e+02
      vertex   6.148906e+01 5.683774e+01 1.400000e+02
      vertex   6.340515e+01 5.819262e+01 1.400000e+02
    endloop
  endfacet
  facet normal 0.000000e+00 0.000000e+00 -1.000000e+00
    outer loop
      vertex   5.751940e+01 5.970184e+01 5.520000e+01
      vertex   5.952808e+01 5.970184e+01 5.520000e+01
      vertex   5.751940e+01 5.683774e+01 5.520000e+01
    endloop
  endfacet
  facet normal 0.000000e+00 0.000000e+00 -1.000000e+00
    outer loop
      vertex   5.751940e+01 5.683774e+01 5.520000e+01
      vertex   5.952808e+01 5.970184e+01 5.520000e+01
      vertex   6.148906e+01 5.683774e+01 5.520000e+01
    endloop
  endfacet
  facet normal 0.000000e+00 0.000000e+00 -1.000000e+00
    outer loop
      vertex   6.148906e+01 5.683774e+01 5.520000e+01
      vertex   5.952808e+01 5.970184e+01 5.520000e+01
      vertex   6.340515e+01 5.819262e+01 5.520000e+01
    endloop
  endfacet
endsolid
